<svg xmlns="http://www.w3.org/2000/svg" xmlns:xlink="http://www.w3.org/1999/xlink" width="500" zoomAndPan="magnify" viewBox="0 0 375 374.999991" height="500" preserveAspectRatio="xMidYMid meet" version="1.0"><defs><g/><clipPath id="82c8be7142"><path d="M 50 58 L 318 58 L 318 325 L 50 325 Z M 50 58 " clip-rule="nonzero"/></clipPath><clipPath id="57c4cf7229"><path d="M 188.445312 1.929688 L 334.148438 154.199219 L 140.148438 339.824219 L -5.550781 187.554688 Z M 188.445312 1.929688 " clip-rule="nonzero"/></clipPath><clipPath id="f9e7304c3f"><path d="M 188.445312 1.929688 L 374.074219 195.925781 L 180.074219 381.550781 L -5.550781 187.554688 Z M 188.445312 1.929688 " clip-rule="nonzero"/></clipPath><clipPath id="5b96fc5d47"><path d="M 243.648438 211.566406 L 256.839844 211.566406 L 256.839844 224.757812 L 243.648438 224.757812 Z M 243.648438 211.566406 " clip-rule="nonzero"/></clipPath><clipPath id="c05a17964f"><path d="M 250.246094 211.566406 C 246.601562 211.566406 243.648438 214.519531 243.648438 218.164062 C 243.648438 221.804688 246.601562 224.757812 250.246094 224.757812 C 253.886719 224.757812 256.839844 221.804688 256.839844 218.164062 C 256.839844 214.519531 253.886719 211.566406 250.246094 211.566406 " clip-rule="nonzero"/></clipPath></defs><g clip-path="url(#82c8be7142)"><g clip-path="url(#57c4cf7229)"><g clip-path="url(#f9e7304c3f)"><path fill="#000000" d="M 245.46875 307.484375 C 234.742188 313.039062 223.203125 316.882812 211.429688 319.222656 C 201.792969 321.074219 192.011719 322.054688 182.21875 322.007812 C 180.914062 322.039062 179.613281 321.921875 178.3125 321.875 C 177.011719 321.804688 175.707031 321.777344 174.40625 321.675781 L 170.515625 321.320312 L 168.566406 321.140625 L 166.632812 320.878906 L 162.757812 320.359375 C 161.46875 320.15625 160.191406 319.902344 158.90625 319.679688 C 156.328125 319.28125 153.800781 318.652344 151.246094 318.105469 C 150.878906 318.027344 150.496094 317.941406 150.09375 317.855469 C 149.699219 317.746094 149.289062 317.632812 148.859375 317.519531 C 148.003906 317.28125 147.082031 317.027344 146.105469 316.757812 C 144.128906 316.261719 141.984375 315.492188 139.613281 314.710938 C 139.027344 314.507812 138.417969 314.324219 137.808594 314.09375 C 137.203125 313.859375 136.589844 313.617188 135.960938 313.371094 C 134.707031 312.878906 133.40625 312.367188 132.0625 311.839844 C 129.453125 310.625 126.609375 309.476562 123.792969 307.945312 C 112.3125 302.265625 99.96875 293.269531 89.496094 282.414062 C 79.113281 271.472656 70.671875 258.746094 65.5 247.027344 C 64.097656 244.144531 63.074219 241.253906 61.976562 238.589844 C 61.507812 237.226562 61.054688 235.90625 60.617188 234.632812 C 60.402344 233.992188 60.1875 233.367188 59.976562 232.753906 C 59.773438 232.136719 59.617188 231.519531 59.441406 230.921875 C 58.761719 228.523438 58.089844 226.34375 57.679688 224.347656 C 57.453125 223.359375 57.242188 222.425781 57.046875 221.5625 C 56.945312 221.128906 56.851562 220.714844 56.761719 220.3125 C 56.691406 219.910156 56.625 219.519531 56.5625 219.152344 C 54.777344 209.519531 53.859375 199.738281 53.972656 189.945312 C 54.199219 179.515625 55.703125 169.144531 58.097656 158.980469 C 60.953125 147.316406 65.304688 135.960938 71.324219 125.488281 C 77.222656 114.941406 84.847656 105.378906 93.535156 96.921875 C 102.367188 88.617188 112.257812 81.417969 123.054688 75.996094 C 133.78125 70.441406 145.316406 66.597656 157.09375 64.253906 C 166.726562 62.40625 176.507812 61.425781 186.300781 61.472656 C 187.605469 61.441406 188.90625 61.554688 190.210938 61.601562 C 191.511719 61.671875 192.816406 61.703125 194.113281 61.800781 L 198.007812 62.160156 L 199.953125 62.335938 L 201.890625 62.601562 L 205.765625 63.121094 C 207.050781 63.324219 208.328125 63.578125 209.613281 63.796875 C 212.191406 64.199219 214.722656 64.828125 217.273438 65.371094 C 217.640625 65.453125 218.023438 65.539062 218.425781 65.625 C 218.820312 65.734375 219.234375 65.84375 219.660156 65.960938 C 220.515625 66.195312 221.4375 66.449219 222.417969 66.722656 C 224.390625 67.21875 226.539062 67.988281 228.90625 68.765625 C 229.496094 68.96875 230.105469 69.15625 230.710938 69.386719 C 231.316406 69.621094 231.933594 69.863281 232.5625 70.109375 C 233.816406 70.601562 235.117188 71.113281 236.457031 71.640625 C 239.070312 72.851562 241.914062 74.003906 244.726562 75.53125 C 256.210938 81.214844 268.550781 90.210938 279.027344 101.066406 C 289.40625 112.007812 297.847656 124.734375 303.019531 136.453125 C 304.421875 139.335938 305.445312 142.222656 306.542969 144.890625 C 307.011719 146.25 307.464844 147.574219 307.902344 148.847656 C 308.121094 149.484375 308.335938 150.113281 308.542969 150.726562 C 308.746094 151.34375 308.902344 151.960938 309.082031 152.558594 C 309.757812 154.957031 310.429688 157.136719 310.839844 159.128906 C 311.066406 160.121094 311.277344 161.050781 311.476562 161.917969 C 311.574219 162.347656 311.667969 162.765625 311.757812 163.167969 C 311.828125 163.570312 311.894531 163.957031 311.960938 164.328125 C 313.746094 173.960938 314.660156 183.742188 314.546875 193.535156 C 314.324219 203.964844 312.816406 214.335938 310.421875 224.5 C 307.566406 236.164062 303.214844 247.519531 297.195312 257.992188 C 291.300781 268.535156 283.671875 278.101562 274.988281 286.558594 C 266.15625 294.863281 256.265625 302.058594 245.46875 307.484375 Z M 277.136719 288.675781 L 277.144531 288.667969 C 286.011719 280.03125 293.808594 270.265625 299.847656 259.492188 C 306.011719 248.796875 310.460938 237.183594 313.347656 225.261719 L 314.601562 219.652344 C 314.601562 219.652344 314.898438 218.097656 315.335938 215.765625 C 315.84375 213.445312 316.191406 210.296875 316.652344 207.167969 C 316.917969 204.015625 317.296875 200.875 317.335938 198.503906 C 317.441406 196.132812 317.507812 194.554688 317.507812 194.554688 C 317.507812 194.554688 317.519531 194.160156 317.523438 193.46875 C 317.523438 192.777344 317.53125 191.789062 317.535156 190.605469 C 317.609375 188.230469 317.417969 185.078125 317.292969 181.917969 C 317.179688 180.34375 317.015625 178.769531 316.890625 177.292969 C 316.820312 176.554688 316.757812 175.84375 316.695312 175.167969 C 316.601562 174.496094 316.511719 173.859375 316.429688 173.269531 C 316.105469 170.921875 315.886719 169.355469 315.886719 169.355469 C 315.886719 169.355469 315.855469 169 315.753906 168.46875 C 315.660156 167.941406 315.539062 167.234375 315.414062 166.527344 C 315.167969 165.113281 314.917969 163.699219 314.917969 163.699219 C 314.855469 163.320312 314.785156 162.925781 314.714844 162.511719 C 314.625 162.101562 314.53125 161.675781 314.429688 161.230469 C 314.230469 160.34375 314.015625 159.390625 313.785156 158.378906 C 313.371094 156.335938 312.6875 154.105469 311.996094 151.648438 C 311.816406 151.039062 311.652344 150.40625 311.449219 149.773438 C 311.234375 149.144531 311.015625 148.503906 310.796875 147.851562 C 310.347656 146.542969 309.886719 145.191406 309.410156 143.792969 C 308.289062 141.066406 307.242188 138.109375 305.808594 135.160156 C 300.523438 123.15625 291.886719 110.121094 281.257812 98.925781 C 270.546875 87.816406 257.902344 78.613281 246.144531 72.804688 C 243.261719 71.242188 240.351562 70.0625 237.675781 68.828125 C 236.300781 68.289062 234.972656 67.765625 233.683594 67.261719 C 233.042969 67.011719 232.410156 66.765625 231.792969 66.523438 C 231.171875 66.292969 230.546875 66.101562 229.941406 65.894531 C 227.519531 65.097656 225.320312 64.316406 223.300781 63.8125 C 222.296875 63.535156 221.355469 63.28125 220.476562 63.039062 C 220.039062 62.921875 219.617188 62.808594 219.210938 62.699219 C 218.800781 62.609375 218.40625 62.523438 218.03125 62.445312 C 218.03125 62.445312 216.632812 62.132812 215.230469 61.824219 C 214.527344 61.671875 213.828125 61.515625 213.304688 61.398438 C 212.78125 61.273438 212.425781 61.230469 212.425781 61.230469 C 212.425781 61.230469 210.871094 60.941406 208.539062 60.511719 C 207.953125 60.40625 207.324219 60.289062 206.65625 60.164062 C 205.984375 60.074219 205.273438 59.976562 204.539062 59.878906 C 203.070312 59.683594 201.507812 59.449219 199.9375 59.269531 C 196.785156 59.007812 193.644531 58.675781 191.269531 58.644531 C 190.085938 58.597656 189.097656 58.558594 188.40625 58.53125 C 187.71875 58.503906 187.320312 58.5 187.320312 58.5 C 187.320312 58.5 185.742188 58.496094 183.371094 58.496094 C 181 58.429688 177.84375 58.671875 174.683594 58.796875 C 171.539062 59.121094 168.378906 59.328125 166.035156 59.730469 C 163.6875 60.070312 162.121094 60.292969 162.121094 60.292969 L 156.464844 61.300781 C 144.421875 63.65625 132.625 67.59375 121.667969 73.277344 C 110.640625 78.835938 100.542969 86.195312 91.519531 94.675781 L 91.511719 94.679688 L 91.449219 94.742188 L 91.382812 94.804688 L 91.378906 94.8125 C 82.511719 103.449219 74.710938 113.214844 68.671875 123.984375 C 62.511719 134.683594 58.058594 146.292969 55.175781 158.21875 L 53.917969 163.828125 C 53.917969 163.828125 53.625 165.382812 53.183594 167.714844 C 52.679688 170.035156 52.332031 173.183594 51.871094 176.3125 C 51.605469 179.464844 51.222656 182.605469 51.183594 184.976562 C 51.082031 187.34375 51.011719 188.925781 51.011719 188.925781 C 51.011719 188.925781 51 189.320312 51 190.011719 C 50.996094 190.703125 50.988281 191.6875 50.984375 192.875 C 50.910156 195.246094 51.105469 198.402344 51.230469 201.5625 C 51.339844 203.136719 51.503906 204.707031 51.632812 206.183594 C 51.699219 206.921875 51.765625 207.636719 51.828125 208.3125 C 51.921875 208.984375 52.007812 209.621094 52.089844 210.207031 C 52.417969 212.558594 52.636719 214.121094 52.636719 214.121094 C 52.636719 214.121094 52.664062 214.480469 52.765625 215.007812 C 52.859375 215.539062 52.984375 216.246094 53.105469 216.953125 C 53.355469 218.367188 53.601562 219.78125 53.601562 219.78125 C 53.667969 220.15625 53.734375 220.554688 53.804688 220.96875 C 53.894531 221.378906 53.992188 221.804688 54.089844 222.25 C 54.289062 223.136719 54.507812 224.085938 54.734375 225.101562 C 55.152344 227.140625 55.835938 229.375 56.523438 231.832031 C 56.703125 232.441406 56.867188 233.074219 57.074219 233.707031 C 57.285156 234.335938 57.503906 234.976562 57.726562 235.628906 C 58.171875 236.933594 58.636719 238.289062 59.113281 239.683594 C 60.230469 242.414062 61.28125 245.371094 62.710938 248.320312 C 68 260.320312 76.636719 273.359375 87.261719 284.554688 C 97.976562 295.660156 110.621094 304.863281 122.378906 310.675781 C 125.261719 312.234375 128.171875 313.414062 130.847656 314.652344 C 132.21875 315.191406 133.550781 315.714844 134.835938 316.214844 C 135.480469 316.46875 136.109375 316.714844 136.730469 316.953125 C 137.351562 317.1875 137.976562 317.378906 138.578125 317.585938 C 141.003906 318.382812 143.203125 319.164062 145.222656 319.667969 C 146.226562 319.941406 147.167969 320.199219 148.042969 320.4375 C 148.480469 320.558594 148.90625 320.671875 149.308594 320.78125 C 149.722656 320.867188 150.113281 320.953125 150.488281 321.035156 C 150.488281 321.035156 151.890625 321.34375 153.292969 321.65625 C 153.992188 321.808594 154.691406 321.964844 155.21875 322.078125 C 155.738281 322.203125 156.097656 322.25 156.097656 322.25 C 156.097656 322.25 157.652344 322.535156 159.984375 322.964844 C 160.566406 323.074219 161.199219 323.191406 161.863281 323.3125 C 162.539062 323.40625 163.246094 323.503906 163.980469 323.601562 C 165.453125 323.792969 167.015625 324.027344 168.585938 324.210938 C 171.734375 324.472656 174.878906 324.804688 177.25 324.835938 C 178.433594 324.882812 179.421875 324.921875 180.113281 324.949219 C 180.804688 324.976562 181.199219 324.980469 181.199219 324.980469 C 181.199219 324.980469 182.78125 324.980469 185.148438 324.984375 C 187.523438 325.050781 190.675781 324.808594 193.835938 324.679688 C 196.984375 324.359375 200.144531 324.152344 202.484375 323.75 C 204.835938 323.410156 206.398438 323.183594 206.398438 323.183594 L 212.058594 322.179688 C 224.097656 319.824219 235.894531 315.886719 246.851562 310.203125 C 257.878906 304.644531 267.980469 297.28125 277 288.804688 L 277.007812 288.800781 L 277.074219 288.738281 L 277.136719 288.675781 " fill-opacity="1" fill-rule="nonzero"/></g></g></g><g fill="#000000" fill-opacity="1"><g transform="translate(169.133312, 324.13659)"><g><path d="M 11.015625 -11.15625 C 10.921875 -11.257812 10.738281 -11.398438 10.46875 -11.578125 C 10.207031 -11.753906 9.890625 -11.925781 9.515625 -12.09375 C 9.140625 -12.269531 8.722656 -12.421875 8.265625 -12.546875 C 7.816406 -12.671875 7.363281 -12.738281 6.90625 -12.75 C 6.082031 -12.769531 5.460938 -12.628906 5.046875 -12.328125 C 4.640625 -12.035156 4.429688 -11.613281 4.421875 -11.0625 C 4.410156 -10.738281 4.476562 -10.472656 4.625 -10.265625 C 4.769531 -10.054688 4.988281 -9.867188 5.28125 -9.703125 C 5.570312 -9.546875 5.9375 -9.394531 6.375 -9.25 C 6.8125 -9.113281 7.316406 -8.96875 7.890625 -8.8125 C 8.628906 -8.582031 9.304688 -8.347656 9.921875 -8.109375 C 10.535156 -7.867188 11.050781 -7.566406 11.46875 -7.203125 C 11.882812 -6.847656 12.203125 -6.425781 12.421875 -5.9375 C 12.648438 -5.445312 12.757812 -4.847656 12.75 -4.140625 C 12.726562 -3.316406 12.554688 -2.613281 12.234375 -2.03125 C 11.910156 -1.445312 11.476562 -0.984375 10.9375 -0.640625 C 10.40625 -0.296875 9.796875 -0.046875 9.109375 0.109375 C 8.421875 0.265625 7.695312 0.332031 6.9375 0.3125 C 5.78125 0.289062 4.640625 0.09375 3.515625 -0.28125 C 2.398438 -0.65625 1.398438 -1.164062 0.515625 -1.8125 L 1.890625 -4.375 C 2.023438 -4.226562 2.257812 -4.046875 2.59375 -3.828125 C 2.925781 -3.617188 3.320312 -3.40625 3.78125 -3.1875 C 4.238281 -2.96875 4.742188 -2.78125 5.296875 -2.625 C 5.859375 -2.46875 6.4375 -2.382812 7.03125 -2.375 C 8.6875 -2.332031 9.523438 -2.84375 9.546875 -3.90625 C 9.554688 -4.226562 9.46875 -4.507812 9.28125 -4.75 C 9.09375 -4.988281 8.828125 -5.195312 8.484375 -5.375 C 8.148438 -5.5625 7.734375 -5.734375 7.234375 -5.890625 C 6.742188 -6.046875 6.203125 -6.21875 5.609375 -6.40625 C 4.867188 -6.613281 4.226562 -6.84375 3.6875 -7.09375 C 3.15625 -7.34375 2.710938 -7.632812 2.359375 -7.96875 C 2.003906 -8.300781 1.738281 -8.679688 1.5625 -9.109375 C 1.394531 -9.546875 1.316406 -10.0625 1.328125 -10.65625 C 1.347656 -11.4375 1.503906 -12.125 1.796875 -12.71875 C 2.097656 -13.320312 2.507812 -13.820312 3.03125 -14.21875 C 3.5625 -14.613281 4.171875 -14.910156 4.859375 -15.109375 C 5.546875 -15.304688 6.28125 -15.394531 7.0625 -15.375 C 8.144531 -15.351562 9.132812 -15.160156 10.03125 -14.796875 C 10.9375 -14.441406 11.722656 -14.023438 12.390625 -13.546875 Z M 11.015625 -11.15625 "/></g></g></g><g fill="#000000" fill-opacity="1"><g transform="translate(192.279341, 323.874895)"><g><path d="M 11.984375 -17.484375 L 14.390625 -2.265625 L 11.453125 -1.8125 L 10.421875 -8.3125 L 3.5 -7.21875 L 4.53125 -0.71875 L 1.59375 -0.25 L -0.8125 -15.46875 L 2.125 -15.9375 L 3.09375 -9.796875 L 10.015625 -10.890625 L 9.046875 -17.03125 Z M 11.984375 -17.484375 "/></g></g></g><g fill="#000000" fill-opacity="1"><g transform="translate(217.877845, 318.889709)"><g><path d="M 7.734375 -2.671875 C 6.660156 -2.285156 5.617188 -2.144531 4.609375 -2.25 C 3.609375 -2.351562 2.671875 -2.632812 1.796875 -3.09375 C 0.929688 -3.5625 0.171875 -4.175781 -0.484375 -4.9375 C -1.148438 -5.707031 -1.648438 -6.554688 -1.984375 -7.484375 C -2.335938 -8.453125 -2.488281 -9.441406 -2.4375 -10.453125 C -2.394531 -11.460938 -2.179688 -12.421875 -1.796875 -13.328125 C -1.410156 -14.234375 -0.847656 -15.046875 -0.109375 -15.765625 C 0.617188 -16.484375 1.492188 -17.023438 2.515625 -17.390625 C 3.554688 -17.765625 4.582031 -17.894531 5.59375 -17.78125 C 6.613281 -17.664062 7.554688 -17.367188 8.421875 -16.890625 C 9.285156 -16.421875 10.046875 -15.804688 10.703125 -15.046875 C 11.359375 -14.285156 11.851562 -13.445312 12.1875 -12.53125 C 12.53125 -11.570312 12.679688 -10.585938 12.640625 -9.578125 C 12.609375 -8.566406 12.398438 -7.613281 12.015625 -6.71875 C 11.640625 -5.820312 11.085938 -5.015625 10.359375 -4.296875 C 9.628906 -3.578125 8.753906 -3.035156 7.734375 -2.671875 Z M 0.890625 -8.515625 C 1.117188 -7.890625 1.429688 -7.316406 1.828125 -6.796875 C 2.222656 -6.285156 2.679688 -5.867188 3.203125 -5.546875 C 3.722656 -5.222656 4.296875 -5.019531 4.921875 -4.9375 C 5.546875 -4.851562 6.191406 -4.929688 6.859375 -5.171875 C 7.535156 -5.410156 8.085938 -5.765625 8.515625 -6.234375 C 8.941406 -6.703125 9.25 -7.234375 9.4375 -7.828125 C 9.632812 -8.421875 9.722656 -9.035156 9.703125 -9.671875 C 9.679688 -10.316406 9.5625 -10.941406 9.34375 -11.546875 C 9.113281 -12.171875 8.789062 -12.738281 8.375 -13.25 C 7.96875 -13.769531 7.503906 -14.191406 6.984375 -14.515625 C 6.472656 -14.835938 5.90625 -15.035156 5.28125 -15.109375 C 4.65625 -15.179688 4.015625 -15.097656 3.359375 -14.859375 C 2.679688 -14.617188 2.125 -14.265625 1.6875 -13.796875 C 1.257812 -13.328125 0.953125 -12.796875 0.765625 -12.203125 C 0.578125 -11.617188 0.492188 -11.003906 0.515625 -10.359375 C 0.546875 -9.722656 0.671875 -9.109375 0.890625 -8.515625 Z M 0.890625 -8.515625 "/></g></g></g><g fill="#000000" fill-opacity="1"><g transform="translate(242.207936, 309.055399)"><g><path d="M 1.390625 -0.8125 L -6.328125 -14.140625 L -0.671875 -17.40625 C -0.0546875 -17.757812 0.582031 -17.957031 1.25 -18 C 1.914062 -18.050781 2.554688 -17.976562 3.171875 -17.78125 C 3.796875 -17.582031 4.367188 -17.273438 4.890625 -16.859375 C 5.410156 -16.441406 5.828125 -15.960938 6.140625 -15.421875 C 6.460938 -14.867188 6.675781 -14.269531 6.78125 -13.625 C 6.894531 -12.976562 6.890625 -12.34375 6.765625 -11.71875 C 6.640625 -11.09375 6.390625 -10.503906 6.015625 -9.953125 C 5.648438 -9.410156 5.160156 -8.960938 4.546875 -8.609375 L 1.375 -6.765625 L 3.96875 -2.296875 Z M 0.0625 -9.046875 L 3.078125 -10.796875 C 3.546875 -11.066406 3.828125 -11.488281 3.921875 -12.0625 C 4.023438 -12.632812 3.882812 -13.25 3.5 -13.90625 C 3.300781 -14.25 3.070312 -14.523438 2.8125 -14.734375 C 2.5625 -14.953125 2.300781 -15.109375 2.03125 -15.203125 C 1.769531 -15.296875 1.5 -15.320312 1.21875 -15.28125 C 0.9375 -15.25 0.6875 -15.164062 0.46875 -15.03125 L -2.4375 -13.359375 Z M 0.0625 -9.046875 "/></g></g></g><g fill="#000000" fill-opacity="1"><g transform="translate(261.98027, 296.687439)"><g><path d="M -5.296875 -15.65625 L -3.265625 -17.359375 L 11.125 -9.3125 L 8.765625 -7.328125 L 5.1875 -9.359375 L 1.046875 -5.90625 L 2.4375 -2.046875 L 0.078125 -0.0625 Z M 3.40625 -10.625 L -2.09375 -13.890625 L 0.078125 -7.828125 Z M 3.40625 -10.625 "/></g></g></g><g fill="#000000" fill-opacity="1"><g transform="translate(280.190329, 280.365229)"><g><path d="M -2.578125 -21.046875 L 9.28125 -11.21875 L 7.390625 -8.921875 L 2.328125 -13.125 L -2.125 -7.734375 L 2.9375 -3.53125 L 1.03125 -1.234375 L -10.828125 -11.0625 L -8.921875 -13.359375 L -4.140625 -9.390625 L 0.3125 -14.78125 L -4.46875 -18.75 Z M -2.578125 -21.046875 "/></g></g></g><g fill="#000000" fill-opacity="1"><g transform="translate(296.103685, 259.701821)"><g><path d="M 4.03125 -7.125 C 3.488281 -6.132812 2.800781 -5.34375 1.96875 -4.75 C 1.144531 -4.15625 0.253906 -3.742188 -0.703125 -3.515625 C -1.660156 -3.296875 -2.640625 -3.253906 -3.640625 -3.390625 C -4.640625 -3.523438 -5.566406 -3.832031 -6.421875 -4.3125 C -7.328125 -4.800781 -8.097656 -5.441406 -8.734375 -6.234375 C -9.378906 -7.023438 -9.851562 -7.890625 -10.15625 -8.828125 C -10.457031 -9.765625 -10.570312 -10.738281 -10.5 -11.75 C -10.4375 -12.769531 -10.144531 -13.753906 -9.625 -14.703125 C -9.082031 -15.671875 -8.390625 -16.445312 -7.546875 -17.03125 C -6.710938 -17.625 -5.8125 -18.023438 -4.84375 -18.234375 C -3.882812 -18.453125 -2.90625 -18.492188 -1.90625 -18.359375 C -0.90625 -18.234375 0.0195312 -17.9375 0.875 -17.46875 C 1.757812 -16.976562 2.515625 -16.34375 3.140625 -15.5625 C 3.773438 -14.78125 4.25 -13.921875 4.5625 -12.984375 C 4.875 -12.054688 4.992188 -11.082031 4.921875 -10.0625 C 4.859375 -9.050781 4.5625 -8.070312 4.03125 -7.125 Z M -4.953125 -6.984375 C -4.367188 -6.660156 -3.757812 -6.429688 -3.125 -6.296875 C -2.488281 -6.171875 -1.863281 -6.160156 -1.25 -6.265625 C -0.644531 -6.378906 -0.0859375 -6.609375 0.421875 -6.953125 C 0.941406 -7.304688 1.375 -7.796875 1.71875 -8.421875 C 2.0625 -9.054688 2.238281 -9.6875 2.25 -10.3125 C 2.269531 -10.9375 2.15625 -11.535156 1.90625 -12.109375 C 1.65625 -12.679688 1.304688 -13.203125 0.859375 -13.671875 C 0.421875 -14.140625 -0.0703125 -14.53125 -0.625 -14.84375 C -1.207031 -15.15625 -1.820312 -15.367188 -2.46875 -15.484375 C -3.113281 -15.609375 -3.738281 -15.617188 -4.34375 -15.515625 C -4.945312 -15.410156 -5.503906 -15.179688 -6.015625 -14.828125 C -6.535156 -14.472656 -6.960938 -13.988281 -7.296875 -13.375 C -7.640625 -12.75 -7.816406 -12.113281 -7.828125 -11.46875 C -7.847656 -10.832031 -7.738281 -10.234375 -7.5 -9.671875 C -7.257812 -9.109375 -6.910156 -8.59375 -6.453125 -8.125 C -6.003906 -7.664062 -5.503906 -7.285156 -4.953125 -6.984375 Z M -4.953125 -6.984375 "/></g></g></g><g fill="#000000" fill-opacity="1"><g transform="translate(307.823057, 236.248033)"><g><path d="M 0.515625 -1.53125 L -14.078125 -6.484375 L -13.125 -9.296875 L -1.015625 -5.1875 L 1.515625 -12.640625 L 4 -11.796875 Z M 0.515625 -1.53125 "/></g></g></g><g fill="#000000" fill-opacity="1"><g transform="translate(314.121182, 214.927718)"><g><path d="M 0.296875 -1.578125 L -14.828125 -4.484375 L -14.265625 -7.421875 L 0.859375 -4.515625 Z M 0.296875 -1.578125 "/></g></g></g><g fill="#000000" fill-opacity="1"><g transform="translate(316.728628, 199.294412)"><g><path d="M -7.78125 -1.015625 C -8.707031 -1.054688 -9.625 -1.265625 -10.53125 -1.640625 C -11.4375 -2.023438 -12.238281 -2.554688 -12.9375 -3.234375 C -13.632812 -3.921875 -14.1875 -4.742188 -14.59375 -5.703125 C -15 -6.671875 -15.175781 -7.75 -15.125 -8.9375 C -15.0625 -10.351562 -14.691406 -11.5625 -14.015625 -12.5625 C -13.347656 -13.570312 -12.503906 -14.3125 -11.484375 -14.78125 L -10 -12.40625 C -10.445312 -12.21875 -10.828125 -11.984375 -11.140625 -11.703125 C -11.453125 -11.429688 -11.703125 -11.128906 -11.890625 -10.796875 C -12.078125 -10.472656 -12.21875 -10.132812 -12.3125 -9.78125 C -12.40625 -9.425781 -12.457031 -9.078125 -12.46875 -8.734375 C -12.5 -7.984375 -12.375 -7.320312 -12.09375 -6.75 C -11.820312 -6.1875 -11.453125 -5.707031 -10.984375 -5.3125 C -10.515625 -4.925781 -9.976562 -4.625 -9.375 -4.40625 C -8.769531 -4.195312 -8.164062 -4.082031 -7.5625 -4.0625 C -6.882812 -4.03125 -6.222656 -4.109375 -5.578125 -4.296875 C -4.941406 -4.484375 -4.375 -4.765625 -3.875 -5.140625 C -3.382812 -5.523438 -2.984375 -5.988281 -2.671875 -6.53125 C -2.359375 -7.070312 -2.1875 -7.664062 -2.15625 -8.3125 C -2.132812 -8.664062 -2.160156 -9.03125 -2.234375 -9.40625 C -2.304688 -9.789062 -2.425781 -10.15625 -2.59375 -10.5 C -2.769531 -10.84375 -3 -11.164062 -3.28125 -11.46875 C -3.570312 -11.78125 -3.921875 -12.035156 -4.328125 -12.234375 L -2.8125 -14.609375 C -2.238281 -14.335938 -1.742188 -13.960938 -1.328125 -13.484375 C -0.910156 -13.015625 -0.5625 -12.488281 -0.28125 -11.90625 C 0 -11.320312 0.203125 -10.703125 0.328125 -10.046875 C 0.460938 -9.390625 0.515625 -8.75 0.484375 -8.125 C 0.429688 -7.03125 0.15625 -6.035156 -0.34375 -5.140625 C -0.84375 -4.253906 -1.476562 -3.5 -2.25 -2.875 C -3.03125 -2.25 -3.898438 -1.769531 -4.859375 -1.4375 C -5.828125 -1.113281 -6.800781 -0.972656 -7.78125 -1.015625 Z M -7.78125 -1.015625 "/></g></g></g><g fill="#000000" fill-opacity="1"><g transform="translate(104.677811, 223.082618)"><g><path d="M 63.628906 -65.769531 C 65.425781 -82.875 54.734375 -92.878906 39.683594 -92.878906 C 30.875 -92.878906 20.441406 -89.542969 14.882812 -82.445312 C 10.175781 -76.542969 9.152344 -66.964844 13.257812 -60.722656 C 16.933594 -54.90625 23.777344 -51.828125 29.847656 -48.921875 C 36.859375 -45.585938 44.128906 -42.421875 49.859375 -37.03125 C 56.359375 -30.875 60.464844 -21.382812 56.359375 -12.828125 C 52.855469 -5.644531 45.585938 -2.652344 38.402344 -2.652344 C 36.433594 -2.652344 34.550781 -2.824219 32.671875 -3.25 C 22.40625 -5.386719 15.394531 -12.828125 15.90625 -23.175781 C 15.992188 -25.488281 16.335938 -27.882812 16.933594 -30.191406 C 17.191406 -31.132812 16.164062 -31.472656 14.882812 -31.472656 C 12.828125 -31.472656 9.835938 -30.53125 9.492188 -29.078125 C 5.472656 -12.058594 13.941406 -1.539062 30.105469 0.769531 C 32.242188 1.027344 34.464844 1.199219 36.605469 1.199219 C 40.195312 1.199219 43.789062 0.769531 47.125 -0.34375 C 57.300781 -3.675781 66.539062 -12.144531 65.511719 -23.605469 C 64.742188 -32.070312 58.585938 -39.257812 51.828125 -43.789062 C 45.328125 -48.152344 37.972656 -51.058594 31.046875 -54.652344 C 25.570312 -57.558594 19.757812 -61.40625 18.472656 -67.90625 C 16.078125 -80.308594 25.316406 -89.03125 37.03125 -89.03125 C 47.039062 -89.03125 54.90625 -81.503906 56.191406 -72.183594 C 56.445312 -69.617188 56.445312 -67.136719 56.191406 -64.742188 C 56.019531 -63.714844 57.046875 -63.289062 58.414062 -63.289062 C 60.550781 -63.289062 63.460938 -64.398438 63.628906 -65.769531 Z M 63.628906 -65.769531 "/></g></g></g><g fill="#000000" fill-opacity="1"><g transform="translate(167.12227, 223.082618)"><g><path d="M 71.070312 -2.480469 C 67.648438 -30.617188 66.023438 -61.234375 69.273438 -89.542969 C 69.445312 -90.742188 68.25 -91.167969 66.878906 -91.167969 C 64.742188 -91.167969 62.003906 -90.144531 61.835938 -88.605469 C 60.296875 -75.261719 60.464844 -62.089844 60.808594 -49.261719 C 55.761719 -49.777344 50.800781 -49.859375 45.839844 -49.859375 C 36.777344 -49.859375 27.882812 -49.433594 18.902344 -48.40625 C 19.070312 -62.605469 18.644531 -76.375 17.019531 -90.058594 C 16.933594 -90.828125 15.992188 -91.167969 14.882812 -91.167969 C 12.570312 -91.167969 9.320312 -89.886719 9.578125 -88.089844 C 12.488281 -61.234375 13.597656 -27.113281 7.183594 -1.96875 C 4.617188 5.644531 0.941406 17.617188 -12.230469 18.472656 C -18.472656 18.472656 -23.347656 14.96875 -27.882812 11.03125 C -28.308594 10.691406 -28.90625 10.519531 -29.675781 10.519531 C -32.328125 10.519531 -36.175781 12.488281 -34.808594 13.855469 C -28.738281 19.15625 -21.039062 22.578125 -12.914062 22.578125 C -2.566406 22.40625 5.988281 16.335938 10.605469 7.269531 C 18.386719 -8.210938 18.644531 -29.078125 18.902344 -45.242188 C 26.855469 -46.183594 34.808594 -46.355469 42.761719 -46.355469 C 48.578125 -46.355469 54.394531 -46.183594 60.296875 -45.414062 C 60.378906 -45.414062 60.550781 -45.414062 60.808594 -45.328125 C 61.066406 -29.761719 61.75 -14.96875 63.628906 -0.425781 C 63.714844 0.425781 64.65625 0.769531 65.769531 0.769531 C 68.078125 0.769531 71.328125 -0.597656 71.070312 -2.480469 Z M 71.070312 -2.480469 "/></g></g></g><g clip-path="url(#5b96fc5d47)"><g clip-path="url(#c05a17964f)"><path fill="#000000" d="M 243.648438 211.566406 L 256.839844 211.566406 L 256.839844 224.757812 L 243.648438 224.757812 Z M 243.648438 211.566406 " fill-opacity="1" fill-rule="nonzero"/></g></g></svg>